<svg xmlns="http://www.w3.org/2000/svg" version="1.1" xmlns:xlink="http://www.w3.org/1999/xlink" xmlns:svgjs="http://svgjs.dev/svgjs" width="1000" height="1000" viewBox="0 0 1000 1000"><rect width="1000" height="1000" fill="#ffffff"></rect><g transform="matrix(0.7,0,0,0.7,149.5757683177789,393.38853659621753)"><svg viewBox="0 0 396 121" data-background-color="#ffffff" preserveAspectRatio="xMidYMid meet" height="305" width="1000" xmlns="http://www.w3.org/2000/svg" xmlns:xlink="http://www.w3.org/1999/xlink"><g id="tight-bounds" transform="matrix(1,0,0,1,0.2399939230850805,-0.07851488591251155)"><svg viewBox="0 0 395.52 121.1570291992264" height="121.1570291992264" width="395.52"><g><svg viewBox="0 0 395.52 121.1570291992264" height="121.1570291992264" width="395.52"><g><svg viewBox="0 0 395.52 121.1570291992264" height="121.1570291992264" width="395.52"><g><svg viewBox="0 0 395.52 121.1570291992264" height="121.1570291992264" width="395.52"><g><svg viewBox="0 0 395.52 75.49120654396727" height="75.49120654396727" width="395.52"><g transform="matrix(1,0,0,1,0,0)"><svg width="395.52" viewBox="1.2999999523162842 -30.100000381469727 220.0399932861328 42" height="75.49120654396727" data-palette-color="#0718c4"><path d="M24.2-8.65L27.3-3.7Q24.95-1.65 21.88-0.48 18.8 0.7 15.15 0.7L15.15 0.7Q11.55 0.7 8.38-0.73 5.2-2.15 3.25-4.88 1.3-7.6 1.3-11.35L1.3-11.35Q1.3-15.1 3.25-18.05 5.2-21 8.4-22.6 11.6-24.2 15.3-24.2L15.3-24.2Q18.55-24.2 21.08-23.25 23.6-22.3 25.03-20.55 26.45-18.8 26.45-16.5L26.45-16.5Q26.45-13 23.58-11.13 20.7-9.25 16.6-9.25L16.6-9.25Q14.3-9.25 12.38-9.7 10.45-10.15 8.55-11.05L8.55-11.05Q8.75-8.5 10.7-7.08 12.65-5.65 15.45-5.65L15.45-5.65Q20.3-5.65 24.2-8.65L24.2-8.65ZM15.9-18.35Q14.05-18.35 12.33-17.45 10.6-16.55 9.6-15.05L9.6-15.05Q12.05-14.25 14.65-14.25L14.65-14.25Q16.7-14.3 17.78-14.88 18.85-15.45 18.85-16.5L18.85-16.5Q18.85-17.3 18.05-17.82 17.25-18.35 15.9-18.35L15.9-18.35ZM50-9.9L56.5-8.05Q56.15-5.3 54.6-3.33 53.05-1.35 50.87-0.33 48.7 0.7 46.6 0.7L46.6 0.7Q43.8 0.7 41.77-0.33 39.75-1.35 37.35-3.6L37.35-3.6Q36.05-1.95 35 0.7L35 0.7 28.8-1.85Q30-5.2 31.95-7.53 33.9-9.85 35.85-11.25 37.8-12.65 40.55-14.2L40.55-14.2 41.7-14.9 43.6-16.05Q40.95-17.8 36.35-17.8L36.35-17.8 36.35-13.15 30-13.15 30-24.2 34.5-24.2Q38-24.2 40.32-23.63 42.65-23.05 44.2-22.03 45.75-21 47.7-19.2L47.7-19.2Q49.15-21 49.9-24.3L49.9-24.3 56.25-21.85Q55.25-18.4 53.87-16.15 52.5-13.9 50.57-12.4 48.65-10.9 45.7-9.5L45.7-9.5Q42.45-7.95 41.05-7L41.05-7Q43.3-5.65 45.35-5.65L45.35-5.65Q47-5.65 48.27-6.9 49.55-8.15 50-9.9L50-9.9ZM87.3-23.55L87.3-17.6 84.65-17.6 75.84 1.3Q73.3 6.85 70.32 9.38 67.34 11.9 63.4 11.9L63.4 11.9Q61.3 11.9 59.62 11.3 57.95 10.7 55.95 9.45L55.95 9.45 58.85 3.7Q61.4 5.25 63.4 5.25L63.4 5.25Q65.5 5.25 66.97 4.13 68.45 3 69.75 0.3L69.75 0.3 60.15-17.6 57.3-17.6 57.3-23.55 71.4-23.55 71.4-18.25 68.15-18.25 73.2-7.4 78.05-18.25 74.95-18.25 74.95-23.55 87.3-23.55ZM137.79-5.95L141.79-5.95 141.79 0 126.49 0 126.49-5.95 130.19-5.95 130.19-12.8Q130.19-14.6 129.22-15.83 128.24-17.05 126.49-17.05L126.49-17.05Q123.14-17.05 119.89-13.05L119.89-13.05 119.89-12.8 119.89-5.95 123.59-5.95 123.59 0 108.49 0 108.49-5.95 112.29-5.95 112.29-12.8Q112.29-14.6 111.29-15.83 110.29-17.05 108.49-17.05L108.49-17.05Q105.19-17.05 101.84-13L101.84-13 101.84-5.95 105.64-5.95 105.64 0 89.54 0 89.54-5.95 94.24-5.95 94.24-17.6 89.54-17.6 89.54-23.55 101.84-23.55 101.84-19.1Q103.84-21.55 106.27-22.85 108.69-24.15 111.34-24.15L111.34-24.15Q114.19-24.15 116.19-22.63 118.19-21.1 119.14-18.2L119.14-18.2Q121.24-21.1 123.84-22.63 126.44-24.15 129.29-24.15L129.29-24.15Q133.29-24.15 135.54-21.23 137.79-18.3 137.79-12.8L137.79-12.8 137.79-5.95ZM166.09-8.65L169.19-3.7Q166.84-1.65 163.77-0.48 160.69 0.7 157.04 0.7L157.04 0.7Q153.44 0.7 150.27-0.73 147.09-2.15 145.14-4.88 143.19-7.6 143.19-11.35L143.19-11.35Q143.19-15.1 145.14-18.05 147.09-21 150.29-22.6 153.49-24.2 157.19-24.2L157.19-24.2Q160.44-24.2 162.97-23.25 165.49-22.3 166.92-20.55 168.34-18.8 168.34-16.5L168.34-16.5Q168.34-13 165.47-11.13 162.59-9.25 158.49-9.25L158.49-9.25Q156.19-9.25 154.27-9.7 152.34-10.15 150.44-11.05L150.44-11.05Q150.64-8.5 152.59-7.08 154.54-5.65 157.34-5.65L157.34-5.65Q162.19-5.65 166.09-8.65L166.09-8.65ZM157.79-18.35Q155.94-18.35 154.22-17.45 152.49-16.55 151.49-15.05L151.49-15.05Q153.94-14.25 156.54-14.25L156.54-14.25Q158.59-14.3 159.67-14.88 160.74-15.45 160.74-16.5L160.74-16.5Q160.74-17.3 159.94-17.82 159.14-18.35 157.79-18.35L157.79-18.35ZM194.54-8.65L197.64-3.7Q195.29-1.65 192.21-0.48 189.14 0.7 185.49 0.7L185.49 0.7Q181.89 0.7 178.71-0.73 175.54-2.15 173.59-4.88 171.64-7.6 171.64-11.35L171.64-11.35Q171.64-15.1 173.59-18.05 175.54-21 178.74-22.6 181.94-24.2 185.64-24.2L185.64-24.2Q188.89-24.2 191.41-23.25 193.94-22.3 195.36-20.55 196.79-18.8 196.79-16.5L196.79-16.5Q196.79-13 193.91-11.13 191.04-9.25 186.94-9.25L186.94-9.25Q184.64-9.25 182.71-9.7 180.79-10.15 178.89-11.05L178.89-11.05Q179.09-8.5 181.04-7.08 182.99-5.65 185.79-5.65L185.79-5.65Q190.64-5.65 194.54-8.65L194.54-8.65ZM186.24-18.35Q184.39-18.35 182.66-17.45 180.94-16.55 179.94-15.05L179.94-15.05Q182.39-14.25 184.99-14.25L184.99-14.25Q187.04-14.3 188.11-14.88 189.19-15.45 189.19-16.5L189.19-16.5Q189.19-17.3 188.39-17.82 187.59-18.35 186.24-18.35L186.24-18.35ZM218.79-7.55L221.34-1.95Q219.59-0.7 217.59-0.03 215.59 0.65 213.04 0.65L213.04 0.65Q208.49 0.65 205.94-2.23 203.39-5.1 203.39-9.95L203.39-9.95 203.39-17.6 198.79-17.6 198.79-23.55 203.39-23.55 203.39-30.1 210.99-30.1 210.99-23.55 217.64-23.55 217.64-17.6 210.99-17.6 210.99-9.95Q210.99-8.1 211.81-7.05 212.64-6 214.39-6L214.39-6Q215.49-6 216.49-6.38 217.49-6.75 218.79-7.55L218.79-7.55Z" opacity="1" transform="matrix(1,0,0,1,0,0)" fill="#000000" class="undefined-text-0" data-fill-palette-color="primary" id="text-0"></path></svg></g></svg></g><g transform="matrix(1,0,0,1,163.310208,93.31286862004089)"><svg viewBox="0 0 232.209792 27.844160579185523" height="27.844160579185523" width="232.209792"><g transform="matrix(1,0,0,1,0,0)"><svg width="232.209792" viewBox="1.0499999523162842 -36.29999923706055 309.3700256347656 37.099998474121094" height="27.844160579185523" data-palette-color="#77d4fc"><path d="M11.5-3.65L18.3-23.4 21.75-23.4 13.25 0 9.5 0 1.05-23.4 4.6-23.4 11.5-3.65ZM31.15 0L27.75 0 27.75-23.4 31.15-23.4 31.15 0ZM29.45-27.95Q28.3-27.95 27.52-28.75 26.75-29.55 26.75-30.7L26.75-30.7Q26.75-31.8 27.52-32.58 28.3-33.35 29.45-33.35L29.45-33.35Q30.55-33.35 31.35-32.58 32.15-31.8 32.15-30.65L32.15-30.65Q32.15-29.55 31.35-28.75 30.55-27.95 29.45-27.95L29.45-27.95ZM50.8-24.2Q52-24.2 53.09-23.85L53.09-23.85 53.09-20.75Q52.05-21.25 50.8-21.25L50.8-21.25Q48.65-21.25 46.8-20.05 44.95-18.85 43.82-16.57 42.7-14.3 42.7-11.2L42.7-11.2 42.7 0 39.3 0 39.3-23.4 42.7-23.4 42.7-18.7Q44.05-21.3 46.12-22.75 48.2-24.2 50.8-24.2L50.8-24.2ZM60.89 0L57.49 0 57.49-20.3 53.49-20.3 53.49-23.4 57.49-23.4 57.49-31.15 60.89-31.15 60.89-23.4 66.29-23.4 66.29-20.3 60.89-20.3 60.89 0ZM87.14-23.4L90.54-23.4 90.54 0 87.14 0 87.14-3.9Q85.94-1.65 83.97-0.43 81.99 0.8 79.39 0.8L79.39 0.8Q76.94 0.8 74.87-0.2 72.79-1.2 71.56-3.15 70.34-5.1 70.34-7.75L70.34-7.75 70.34-23.4 73.74-23.4 73.74-9.25Q73.74-2.3 79.94-2.3L79.94-2.3Q83.54-2.3 85.34-4.85 87.14-7.4 87.14-11.7L87.14-11.7 87.14-23.4ZM115.19-23.4L118.59-23.4 118.59 0 115.19 0 115.19-3.45Q113.74-1.45 111.64-0.33 109.54 0.8 107.04 0.8L107.04 0.8Q103.69 0.8 101.04-0.8 98.39-2.4 96.89-5.25 95.39-8.1 95.39-11.75L95.39-11.75Q95.39-15.35 96.86-18.18 98.34-21 100.96-22.6 103.59-24.2 106.94-24.2L106.94-24.2Q109.49-24.2 111.61-23.08 113.74-21.95 115.19-19.9L115.19-19.9 115.19-23.4ZM106.94-2.3Q109.34-2.3 111.21-3.5 113.09-4.7 114.14-6.85 115.19-9 115.19-11.7L115.19-11.7Q115.19-14.4 114.14-16.55 113.09-18.7 111.21-19.9 109.34-21.1 106.94-21.1L106.94-21.1Q104.59-21.1 102.74-19.9 100.89-18.7 99.84-16.57 98.79-14.45 98.79-11.75L98.79-11.75Q98.79-9 99.84-6.85 100.89-4.7 102.74-3.5 104.59-2.3 106.94-2.3L106.94-2.3ZM128.53 0L125.14 0 125.14-36.3 128.53-36.3 128.53 0ZM156.33 0.8Q152.93 0.8 150.28-0.8 147.63-2.4 146.13-5.25 144.63-8.1 144.63-11.7L144.63-11.7Q144.63-15.3 146.1-18.15 147.58-21 150.23-22.6 152.88-24.2 156.23-24.2L156.23-24.2Q159.08-24.2 161.21-22.98 163.33-21.75 165.08-19.5L165.08-19.5 162.58-17.55Q160.13-21.1 156.23-21.1L156.23-21.1Q153.88-21.1 152-19.9 150.13-18.7 149.08-16.55 148.03-14.4 148.03-11.7L148.03-11.7Q148.03-9 149.08-6.85 150.13-4.7 152-3.5 153.88-2.3 156.23-2.3L156.23-2.3Q158.63-2.3 160.18-3.13 161.73-3.95 162.98-5.55L162.98-5.55 165.63-3.7Q163.98-1.65 161.56-0.43 159.13 0.8 156.33 0.8L156.33 0.8ZM180.23 0.8Q176.88 0.8 174.23-0.8 171.58-2.4 170.08-5.28 168.58-8.15 168.58-11.75L168.58-11.75Q168.58-15.35 170.05-18.18 171.53-21 174.15-22.6 176.78-24.2 180.13-24.2L180.13-24.2Q183.48-24.2 186.13-22.6 188.78-21 190.28-18.15 191.78-15.3 191.78-11.7L191.78-11.7Q191.78-8.1 190.3-5.25 188.83-2.4 186.2-0.8 183.58 0.8 180.23 0.8L180.23 0.8ZM180.13-2.3Q182.53-2.3 184.4-3.5 186.28-4.7 187.33-6.85 188.38-9 188.38-11.7L188.38-11.7Q188.38-14.4 187.33-16.55 186.28-18.7 184.4-19.9 182.53-21.1 180.13-21.1L180.13-21.1Q177.78-21.1 175.93-19.9 174.08-18.7 173.03-16.57 171.98-14.45 171.98-11.75L171.98-11.75Q171.98-9 173.03-6.85 174.08-4.7 175.93-3.5 177.78-2.3 180.13-2.3L180.13-2.3ZM207.73-24.2Q210.18-24.2 212.25-23.2 214.33-22.2 215.55-20.25 216.78-18.3 216.78-15.65L216.78-15.65 216.78 0 213.38 0 213.38-14.15Q213.38-21.1 207.18-21.1L207.18-21.1Q203.58-21.1 201.78-18.55 199.98-16 199.98-11.7L199.98-11.7 199.98 0 196.58 0 196.58-23.4 199.98-23.4 199.98-19.5Q201.18-21.75 203.15-22.98 205.13-24.2 207.73-24.2L207.73-24.2ZM234.57-24.2Q237.02-24.2 239.1-23.2 241.17-22.2 242.4-20.25 243.62-18.3 243.62-15.65L243.62-15.65 243.62 0 240.22 0 240.22-14.15Q240.22-21.1 234.02-21.1L234.02-21.1Q230.42-21.1 228.62-18.55 226.82-16 226.82-11.7L226.82-11.7 226.82 0 223.42 0 223.42-23.4 226.82-23.4 226.82-19.5Q228.02-21.75 230-22.98 231.97-24.2 234.57-24.2L234.57-24.2ZM260.37-24.2Q263.52-24.2 266.07-22.65 268.62-21.1 270.07-18.43 271.52-15.75 271.52-12.45L271.52-12.45Q271.52-11.5 271.47-11L271.47-11 252.22-11Q252.42-7.4 254.57-4.85 256.72-2.3 260.42-2.3L260.42-2.3Q263.42-2.3 265.39-3.43 267.37-4.55 268.57-6.55L268.57-6.55 271.27-4.75Q269.62-2.15 266.92-0.68 264.22 0.8 260.52 0.8L260.52 0.8Q257.12 0.8 254.47-0.8 251.82-2.4 250.32-5.25 248.82-8.1 248.82-11.7L248.82-11.7Q248.82-15.3 250.3-18.15 251.77-21 254.4-22.6 257.02-24.2 260.37-24.2L260.37-24.2ZM252.42-13.8L268.12-13.8Q267.62-17.45 265.67-19.28 263.72-21.1 260.37-21.1L260.37-21.1Q257.12-21.1 255.05-19.03 252.97-16.95 252.42-13.8L252.42-13.8ZM286.67 0.8Q283.27 0.8 280.62-0.8 277.97-2.4 276.47-5.25 274.97-8.1 274.97-11.7L274.97-11.7Q274.97-15.3 276.44-18.15 277.92-21 280.57-22.6 283.22-24.2 286.57-24.2L286.57-24.2Q289.42-24.2 291.54-22.98 293.67-21.75 295.42-19.5L295.42-19.5 292.92-17.55Q290.47-21.1 286.57-21.1L286.57-21.1Q284.22-21.1 282.34-19.9 280.47-18.7 279.42-16.55 278.37-14.4 278.37-11.7L278.37-11.7Q278.37-9 279.42-6.85 280.47-4.7 282.34-3.5 284.22-2.3 286.57-2.3L286.57-2.3Q288.97-2.3 290.52-3.13 292.07-3.95 293.32-5.55L293.32-5.55 295.97-3.7Q294.32-1.65 291.89-0.43 289.47 0.8 286.67 0.8L286.67 0.8ZM305.02 0L301.62 0 301.62-20.3 297.62-20.3 297.62-23.4 301.62-23.4 301.62-31.15 305.02-31.15 305.02-23.4 310.42-23.4 310.42-20.3 305.02-20.3 305.02 0Z" opacity="1" transform="matrix(1,0,0,1,0,0)" fill="#000000" class="undefined-text-1" data-fill-palette-color="secondary" id="text-1"></path></svg></g></svg></g></svg></g></svg></g></svg></g><defs></defs></svg><rect width="395.52" height="121.1570291992264" fill="none" stroke="none" visibility="hidden"></rect></g></svg></g></svg>